G04 #@! TF.FileFunction,Copper,L1,Top,Signal*
%FSLAX46Y46*%
G04 Gerber Fmt 4.6, Leading zero omitted, Abs format (unit mm)*
G04 Created by KiCad (PCBNEW 4.0.2+e4-6225~38~ubuntu14.04.1-stable) date Sun 09 Oct 2016 12:28:54 PM CEST*
%MOMM*%
G01*
G04 APERTURE LIST*
%ADD10C,0.100000*%
%ADD11O,1.524000X2.524000*%
%ADD12R,1.727200X1.727200*%
%ADD13O,1.727200X1.727200*%
%ADD14C,0.600000*%
%ADD15C,0.762000*%
%ADD16C,0.254000*%
G04 APERTURE END LIST*
D10*
D11*
X110490000Y-111760000D03*
X113030000Y-111760000D03*
X115570000Y-111760000D03*
X118110000Y-111760000D03*
X120650000Y-111760000D03*
X120650000Y-96520000D03*
X118110000Y-96520000D03*
X115570000Y-96520000D03*
X113030000Y-96520000D03*
X110490000Y-96520000D03*
X123190000Y-111760000D03*
X125730000Y-111760000D03*
X128270000Y-111760000D03*
X130810000Y-111760000D03*
X133350000Y-111760000D03*
X133350000Y-96520000D03*
X130810000Y-96520000D03*
X128270000Y-96520000D03*
X125730000Y-96520000D03*
X123190000Y-96520000D03*
D12*
X127000000Y-105410000D03*
D13*
X127000000Y-102870000D03*
X124460000Y-105410000D03*
X124460000Y-102870000D03*
X121920000Y-105410000D03*
X121920000Y-102870000D03*
X119380000Y-105410000D03*
X119380000Y-102870000D03*
X116840000Y-105410000D03*
X116840000Y-102870000D03*
D14*
X115570000Y-111760000D03*
D15*
X116840000Y-105410000D02*
X114300000Y-105410000D01*
X110490000Y-109220000D02*
X110490000Y-111760000D01*
X114300000Y-105410000D02*
X110490000Y-109220000D01*
X119380000Y-105410000D02*
X119380000Y-106680000D01*
X113030000Y-110490000D02*
X113030000Y-111760000D01*
X114300000Y-109220000D02*
X113030000Y-110490000D01*
X116840000Y-109220000D02*
X114300000Y-109220000D01*
X119380000Y-106680000D02*
X116840000Y-109220000D01*
D16*
X115570000Y-111760000D02*
X120396000Y-106934000D01*
X120650000Y-103886000D02*
X121666000Y-102870000D01*
X120650000Y-106680000D02*
X120650000Y-103886000D01*
X120396000Y-106934000D02*
X120650000Y-106680000D01*
X121666000Y-102870000D02*
X121920000Y-102870000D01*
D15*
X121920000Y-102870000D02*
X121920000Y-101600000D01*
X115570000Y-97790000D02*
X115570000Y-96520000D01*
X116840000Y-99060000D02*
X115570000Y-97790000D01*
X119380000Y-99060000D02*
X116840000Y-99060000D01*
X121920000Y-101600000D02*
X119380000Y-99060000D01*
X124460000Y-105410000D02*
X124460000Y-106680000D01*
X130810000Y-110490000D02*
X130810000Y-111760000D01*
X128270000Y-107950000D02*
X130810000Y-110490000D01*
X125730000Y-107950000D02*
X128270000Y-107950000D01*
X124460000Y-106680000D02*
X125730000Y-107950000D01*
X127000000Y-105410000D02*
X129540000Y-105410000D01*
X133350000Y-109220000D02*
X133350000Y-111760000D01*
X129540000Y-105410000D02*
X133350000Y-109220000D01*
D16*
X120650000Y-96520000D02*
X120650000Y-96266000D01*
X120650000Y-96266000D02*
X122682000Y-94234000D01*
X122682000Y-94234000D02*
X131064000Y-94234000D01*
X131064000Y-94234000D02*
X133350000Y-96520000D01*
D15*
X127000000Y-102870000D02*
X129540000Y-102870000D01*
X133350000Y-99060000D02*
X133350000Y-96520000D01*
X129540000Y-102870000D02*
X133350000Y-99060000D01*
X124460000Y-102870000D02*
X124460000Y-101600000D01*
X130810000Y-99060000D02*
X130810000Y-96520000D01*
X129540000Y-100330000D02*
X130810000Y-99060000D01*
X125730000Y-100330000D02*
X129540000Y-100330000D01*
X124460000Y-101600000D02*
X125730000Y-100330000D01*
X119380000Y-102870000D02*
X119380000Y-101600000D01*
X113030000Y-99060000D02*
X113030000Y-96520000D01*
X114300000Y-100330000D02*
X113030000Y-99060000D01*
X118110000Y-100330000D02*
X114300000Y-100330000D01*
X119380000Y-101600000D02*
X118110000Y-100330000D01*
X116840000Y-102870000D02*
X114300000Y-102870000D01*
X110490000Y-99060000D02*
X110490000Y-96520000D01*
X114300000Y-102870000D02*
X110490000Y-99060000D01*
X121920000Y-105410000D02*
X121920000Y-106680000D01*
X128270000Y-110490000D02*
X128270000Y-111760000D01*
X127000000Y-109220000D02*
X128270000Y-110490000D01*
X124460000Y-109220000D02*
X127000000Y-109220000D01*
X121920000Y-106680000D02*
X124460000Y-109220000D01*
M02*
