M48
;DRILL file {KiCad 4.0.2+e4-6225~38~ubuntu14.04.1-stable} date Sun 09 Oct 2016 12:29:10 PM CEST
;FORMAT={-:-/ absolute / inch / decimal}
FMAT,2
INCH,TZ
T1C0.016
T2C0.031
T3C0.040
%
G90
G05
M72
T1
X4.55Y-4.4
T2
X4.35Y-3.8
X4.35Y-4.4
X4.45Y-3.8
X4.45Y-4.4
X4.55Y-3.8
X4.55Y-4.4
X4.65Y-3.8
X4.65Y-4.4
X4.75Y-3.8
X4.75Y-4.4
X4.85Y-3.8
X4.85Y-4.4
X4.95Y-3.8
X4.95Y-4.4
X5.05Y-3.8
X5.05Y-4.4
X5.15Y-3.8
X5.15Y-4.4
X5.25Y-3.8
X5.25Y-4.4
T3
X4.6Y-4.05
X4.6Y-4.15
X4.7Y-4.05
X4.7Y-4.15
X4.8Y-4.05
X4.8Y-4.15
X4.9Y-4.05
X4.9Y-4.15
X5.Y-4.05
X5.Y-4.15
T0
M30
