G04 #@! TF.FileFunction,Legend,Top*
%FSLAX46Y46*%
G04 Gerber Fmt 4.6, Leading zero omitted, Abs format (unit mm)*
G04 Created by KiCad (PCBNEW 4.0.2+e4-6225~38~ubuntu14.04.1-stable) date Sun 09 Oct 2016 12:28:54 PM CEST*
%MOMM*%
G01*
G04 APERTURE LIST*
%ADD10C,0.100000*%
%ADD11C,0.150000*%
G04 APERTURE END LIST*
D10*
D11*
X120017214Y-109140000D02*
G75*
G03X120017214Y-109140000I-447214J0D01*
G01*
X112570000Y-99140000D02*
X111570000Y-104140000D01*
X111570000Y-104140000D02*
X110570000Y-109140000D01*
X110570000Y-109140000D02*
X117570000Y-109140000D01*
X117570000Y-109140000D02*
X118570000Y-104140000D01*
X119570000Y-99140000D02*
X118570000Y-104140000D01*
X118570000Y-104140000D02*
X111570000Y-104140000D01*
X112570000Y-99140000D02*
X119570000Y-99140000D01*
X121870000Y-113740000D02*
X109270000Y-113740000D01*
X109270000Y-98440000D02*
X109270000Y-109840000D01*
X121870000Y-98440000D02*
X121870000Y-109840000D01*
X109270000Y-94540000D02*
X121870000Y-94540000D01*
X132717214Y-109140000D02*
G75*
G03X132717214Y-109140000I-447214J0D01*
G01*
X125270000Y-99140000D02*
X124270000Y-104140000D01*
X124270000Y-104140000D02*
X123270000Y-109140000D01*
X123270000Y-109140000D02*
X130270000Y-109140000D01*
X130270000Y-109140000D02*
X131270000Y-104140000D01*
X132270000Y-99140000D02*
X131270000Y-104140000D01*
X131270000Y-104140000D02*
X124270000Y-104140000D01*
X125270000Y-99140000D02*
X132270000Y-99140000D01*
X134570000Y-113740000D02*
X121970000Y-113740000D01*
X121970000Y-98440000D02*
X121970000Y-109840000D01*
X134570000Y-98440000D02*
X134570000Y-109840000D01*
X121970000Y-94540000D02*
X134570000Y-94540000D01*
M02*
